<?xml version="1.0" encoding="UTF-8" standalone="no"?>
<svg
   width="210mm"
   height="30mm"
   viewBox="0 0 210 30"
   version="1.1"
   id="svg2"
   xmlns="http://www.w3.org/2000/svg"
   xmlns:svg="http://www.w3.org/2000/svg">
  <defs
     id="defs1">
    <style
       id="style1">
      @import url('https://fonts.googleapis.com/css2?family=Cormorant+Garamond:wght@300&amp;display=swap');
    </style>
  </defs>
  <!-- Main Title - KNAPVÆRK - Very light and spacious -->
  <path
     d="M 34.770065,11.45695 V 2.6368004 q 0,-0.55245 -0.1143,-0.81915 -0.1143,-0.2857499 -0.47625,-0.3809999 -0.3429,-0.1143 -1.0287,-0.1143 -0.0381,0 -0.0381,-0.1143 0,-0.1143 0.0381,-0.1143 0.4572,0 1.0287,0.0381 0.5715,0.01905 1.20015,0.01905 0.6858,0 1.23825,-0.01905 0.5715,-0.0381 1.00965,-0.0381 0.05715,0 0.05715,0.1143 0,0.1143 -0.05715,0.1143 -0.6858,0 -1.0287,0.1143 -0.3429,0.1143 -0.47625,0.4000499 -0.1143,0.28575 -0.1143,0.8382 V 11.45695 q 0,0.55245 0.1143,0.8382 0.1143,0.28575 0.4572,0.381 0.36195,0.09525 1.04775,0.09525 0.05715,0 0.05715,0.1143 0,0.1143 -0.05715,0.1143 -0.4572,0 -1.00965,-0.01905 -0.55245,-0.01905 -1.23825,-0.01905 -0.62865,0 -1.2192,0.01905 Q 33.588965,13 33.131765,13 q -0.0381,0 -0.0381,-0.1143 0,-0.1143 0.0381,-0.1143 0.6858,0 1.04775,-0.09525 0.36195,-0.09525 0.47625,-0.381 0.1143,-0.28575 0.1143,-0.8382 z m 4.78155,-1.2192 -3.02895,-3.8099997 0.9525,-0.762 2.7813,3.5432999 q 0.85725,1.1239498 1.447799,1.8097498 0.6096,0.6858 1.00965,1.0668 0.40005,0.36195 0.70485,0.51435 0.32385,0.13335 0.6096,0.1524 0.28575,0.01905 0.6477,0.01905 0.05715,0 0.05715,0.1143 0,0.1143 -0.05715,0.1143 -0.85725,0 -1.3716,0 -0.51435,0 -0.762,0 -0.17145,0 -0.28575,0 -0.09525,0.01905 -0.20955,0.01905 -0.2667,0 -0.43815,-0.09525 -0.1524,-0.09525 -0.36195,-0.381 -0.209549,-0.28575 -0.609599,-0.8382 -0.381,-0.55245 -1.08585,-1.46685 z m -4.3815,-2.7050998 4.9149,-4.8958498 q 0.70485,-0.7239 0.59055,-1.0096499 -0.09525,-0.3048 -1.08585,-0.3048 -0.0381,0 -0.0381,-0.1143 0,-0.1143 0.0381,-0.1143 0.47625,0 0.9525,0.0381 0.47625,0.01905 1.257299,0.01905 0.74295,0 1.1811,-0.01905 0.43815,-0.0381 0.8382,-0.0381 0.05715,0 0.05715,0.1143 0,0.1143 -0.05715,0.1143 -0.6858,0 -1.58115,0.32385 -0.89535,0.3047999 -1.714499,1.1048999 l -4.8768,4.7815498 z M 53.133507,10.92355 V 1.5319005 l 0.43815,0.0381 V 10.92355 q 0,0.9906 0.3429,1.42875 0.3429,0.4191 1.143,0.4191 0.05715,0 0.05715,0.1143 0,0.1143 -0.05715,0.1143 -0.381,0 -0.78105,-0.01905 -0.40005,-0.01905 -0.89535,-0.01905 -0.47625,0 -0.9144,0.01905 Q 52.028607,13 51.628557,13 q -0.0381,0 -0.0381,-0.1143 0,-0.1143 0.0381,-0.1143 0.8382,0 1.16205,-0.4191 0.3429,-0.43815 0.3429,-1.42875 z m 9.601199,2.30505 q 0,0.0381 -0.09525,0.0381 -0.09525,0.01905 -0.13335,0 L 53.743107,2.6558504 q -0.6477,-0.78105 -1.16205,-1.0477499 -0.4953,-0.28575 -0.9525,-0.28575 -0.05715,0 -0.05715,-0.1143 0,-0.1143 0.05715,-0.1143 0.3429,0 0.6858,0.01905 0.36195,0.01905 0.6477,0.01905 0.3429,0 0.6477,-0.01905 0.3048,-0.01905 0.4572,-0.01905 0.24765,0 0.3429,0.2286 0.09525,0.20955 0.55245,0.7619999 L 62.582306,11.4379 Z m 0,-10.0393496 V 13.2286 l -0.43815,-0.59055 V 3.1892504 q 0,-0.9906 -0.3429,-1.4287499 -0.32385,-0.43815 -1.104899,-0.43815 -0.0381,0 -0.0381,-0.1143 0,-0.1143 0.0381,-0.1143 0.380999,0 0.781049,0.0381 0.4191,0.01905 0.89535,0.01905 0.4572,0 0.89535,-0.01905 0.4572,-0.0381 0.8382,-0.0381 0.05715,0 0.05715,0.1143 0,0.1143 -0.05715,0.1143 -0.81915,0 -1.1811,0.43815 -0.3429,0.4381499 -0.3429,1.4287499 z m 11.657835,4.5719998 0.1905,-0.381 h 5.04825 l 0.13335,0.381 z m 9.62025,5.0101498 q 0.0762,0 0.0762,0.1143 0,0.1143 -0.0762,0.1143 -0.55245,0 -1.12395,-0.0381 -0.5715,-0.0381 -1.1049,-0.0381 -0.59055,0 -1.0287,0.0381 Q 80.317091,13 79.783691,13 q -0.0762,0 -0.0762,-0.1143 0,-0.1143 0.0762,-0.1143 1.00965,0 1.2573,-0.28575 0.24765,-0.3048 -0.13335,-1.12395 l -4.2291,-8.9344496 0.47625,-0.59055 -3.695699,8.7439496 q -0.47625,1.16205 -0.05715,1.6764 0.4191,0.51435 1.657349,0.51435 0.09525,0 0.09525,0.1143 0,0.1143 -0.09525,0.1143 -0.5715,0 -1.04775,-0.0381 -0.476249,-0.0381 -1.200149,-0.0381 -0.6858,0 -1.1049,0.0381 Q 71.306442,13 70.715892,13 q -0.0762,0 -0.0762,-0.1143 0,-0.1143 0.0762,-0.1143 0.51435,0 0.89535,-0.1905 0.381,-0.20955 0.70485,-0.70485 0.3429,-0.51435 0.74295,-1.46685 l 4.019549,-9.48689952 q 0.0381,-0.05715 0.13335,-0.05715 0.09525,0 0.1143,0.05715 l 4.4958,9.46784952 q 0.43815,0.93345 0.78105,1.46685 0.3429,0.51435 0.66675,0.7239 0.3429,0.1905 0.74295,0.1905 z m 9.714743,-1.39065 q 0,0.5715 0.1524,0.8763 0.1524,0.28575 0.6477,0.40005 0.4953,0.1143 1.46685,0.1143 0.05715,0 0.05715,0.1143 0,0.1143 -0.05715,0.1143 -0.6096,0 -1.3335,-0.01905 -0.70485,-0.01905 -1.54305,-0.01905 -0.62865,0 -1.2192,0.01905 Q 91.327234,13 90.870034,13 q -0.0381,0 -0.0381,-0.1143 0,-0.1143 0.0381,-0.1143 0.70485,0 1.04775,-0.09525 0.3429,-0.09525 0.4572,-0.381 0.1143,-0.28575 0.1143,-0.8382 V 2.6368004 q 0,-0.55245 -0.1143,-0.81915 -0.1143,-0.2857499 -0.4572,-0.3809999 -0.3429,-0.1143 -1.04775,-0.1143 -0.0381,0 -0.0381,-0.1143 0,-0.1143 0.0381,-0.1143 0.4572,0 1.0287,0.0381 0.5715,0.01905 1.20015,0.01905 0.4953,0 1.20015,-0.05715 0.7239,-0.05715 1.4478,-0.05715 1.08585,0 1.9431,0.32385 0.8763,0.32385 1.39065,1.0096499 0.51435,0.6858 0.5334,1.7907 0,1.0096499 -0.381,1.7335499 -0.36195,0.7239 -0.9906,1.2001499 -0.6096,0.4572 -1.35255,0.6858 -0.74295,0.2286 -1.4859,0.2286 -0.2286,0 -0.47625,-0.01905 -0.2286,-0.01905 -0.43815,-0.0762 -0.0762,-0.01905 -0.05715,-0.13335 0.0381,-0.13335 0.09525,-0.1143 0.17145,0.0381 0.3429,0.05715 0.1905,0.01905 0.3429,0.01905 0.78105,0 1.46685,-0.3429 0.6858,-0.3429 1.1049,-1.0477499 0.4191,-0.7239 0.4191,-1.7907 0,-1.0477499 -0.381,-1.7525999 -0.381,-0.7239 -1.04775,-1.1048999 -0.66675,-0.381 -1.4859,-0.381 -0.62865,0 -0.97155,0.0762 -0.32385,0.05715 -0.4572,0.3429 -0.13335,0.2857499 -0.13335,0.9334499 z M 119.15852,1.0937505 q 0.0572,0 0.0572,0.1143 0,0.1143 -0.0572,0.1143 -0.6096,0 -1.1049,0.32385 -0.47625,0.3238499 -0.81915,1.1810999 L 113.17682,12.98095 q -0.0191,0.0762 -0.20955,0.0762 -0.17145,0 -0.20955,-0.0762 L 108.01427,2.6749004 q -0.32385,-0.7239 -0.6858,-1.0286999 -0.3429,-0.32385 -0.93345,-0.32385 -0.0572,0 -0.0572,-0.1143 0,-0.1143 0.0572,-0.1143 0.2667,0 0.51435,0.01905 0.24765,0.01905 0.51435,0.0381 0.2667,0 0.55245,0 0.5715,0 1.00965,0 0.43815,-0.01905 0.78105,-0.0381 0.3429,-0.01905 0.62865,-0.01905 0.0571,0 0.0571,0.1143 0,0.1143 -0.0571,0.1143 -0.74295,0 -1.04775,0.28575 -0.28575,0.2857499 0.0381,0.9905999 l 4.1148,9.0106496 -0.59055,0.8763 3.8862,-9.7726496 q 0.28575,-0.70485 0,-1.0477499 -0.28575,-0.3429 -1.3335,-0.3429 -0.0571,0 -0.0571,-0.1143 0,-0.1143 0.0571,-0.1143 0.47625,0 0.89535,0.0381 0.4191,0.01905 1.1049,0.01905 0.55245,0 0.8763,-0.01905 0.3429,-0.0381 0.81915,-0.0381 z M 123.53929,13 q -0.0762,0 -0.0762,-0.1143 0,-0.1143 0.0762,-0.1143 0.59055,0 1.31445,-0.59055 0.7239,-0.6096 1.4859,-1.69545 l 5.77215,-8.4200996 q 0.36195,-0.4952999 0.1524,-0.6095999 -0.1905,-0.13335 -1.3716,-0.13335 -0.0381,0 -0.0381,-0.1143 0,-0.1143 0.0381,-0.1143 h 7.5057 q 0.17145,0 0.17145,0.17145 l 0.0381,2.3431499 q 0,0.05715 -0.1143,0.0762 -0.0952,0 -0.0952,-0.05715 -0.0381,-0.59055 -0.3048,-1.0668 -0.2667,-0.4953 -0.7239,-0.78105 -0.43815,-0.2857499 -1.00965,-0.2857499 h -1.04775 q -0.62865,0 -0.97155,0.09525 -0.32385,0.0762 -0.43815,0.3428999 -0.1143,0.24765 -0.1143,0.7239 V 11.38075 q 0,0.4953 0.1143,0.762 0.1143,0.2667 0.43815,0.36195 0.32385,0.09525 0.93345,0.09525 h 1.39065 q 0.55245,0 1.0287,-0.3048 0.47625,-0.32385 0.81915,-0.85725 0.3429,-0.55245 0.4572,-1.27635 0,-0.05715 0.1143,-0.0381 0.1143,0.01905 0.1143,0.0762 -0.0762,0.4953 -0.13335,1.20015 -0.0381,0.70485 -0.0381,1.31445 0,0.28575 -0.3048,0.28575 h -7.7724 q -0.0381,0 -0.0381,-0.1143 0,-0.1143 0.0381,-0.1143 0.6858,0 1.0287,-0.09525 0.36195,-0.09525 0.47625,-0.381 0.1143,-0.28575 0.1143,-0.8382 V 1.7986004 l 0.47625,-0.3047999 -6.2103,9.1058995 q -0.762,1.08585 -0.5334,1.6383 0.24765,0.5334 1.4478,0.5334 0.0952,0 0.0952,0.1143 0,0.1143 -0.0952,0.1143 -0.6096,0 -1.1049,-0.0381 -0.47625,-0.0381 -1.23825,-0.0381 -0.62865,0 -1.00965,0.0381 Q 124.03459,13 123.53929,13 Z m 5.46735,-6.0007498 0.28575,-0.4000499 h 4.01955 l 0.13335,0.4000499 z m 8.6487,1.5621 q 0,-0.8382 -0.4191,-1.20015 -0.40005,-0.36195 -1.35255,-0.36195 h -2.7813 V 6.5992003 h 2.8194 q 0.93345,0 1.31445,-0.3048 0.40005,-0.32385 0.40005,-1.0287 0,-0.0381 0.1143,-0.0381 0.1143,0 0.1143,0.0381 0,0.5715 -0.019,0.89535 0,0.3048 0,0.6476999 0,0.43815 0.019,0.85725 0.019,0.4191 0.019,0.89535 0,0.0381 -0.1143,0.0381 -0.1143,0 -0.1143,-0.0381 z M 156.68555,13 q -0.32385,0 -1.04775,-0.7239 -0.70485,-0.74295 -1.73355,-2.11455 -1.00965,-1.3906498 -2.26695,-3.2765998 l 1.0668,-0.3238499 q 1.61925,2.3050499 2.7432,3.6766497 1.143,1.35255 2.00025,1.9431 0.8763,0.59055 1.6764,0.59055 0.0571,0 0.0571,0.1143 0,0.1143 -0.0571,0.1143 -0.9525,0 -1.5621,0 -0.59055,0 -0.8763,0 z m -4.8006,-11.9633995 q 1.524,0 2.3241,0.70485 0.81915,0.6857999 0.81915,1.8097499 0,1.0286999 -0.6096,1.8668999 -0.59055,0.81915 -1.58115,1.2954 -0.97155,0.4762499 -2.1336,0.4762499 -0.1905,0 -0.43815,-0.01905 -0.2286,-0.01905 -0.4191,-0.0381 V 11.45695 q 0,0.55245 0.0952,0.8382 0.1143,0.28575 0.4572,0.381 0.36195,0.09525 1.0668,0.09525 0.0572,0 0.0572,0.1143 0,0.1143 -0.0572,0.1143 -0.4572,0 -1.0287,-0.01905 -0.55245,-0.01905 -1.2192,-0.01905 -0.62865,0 -1.2192,0.01905 Q 147.42725,13 146.951,13 q -0.0381,0 -0.0381,-0.1143 0,-0.1143 0.0381,-0.1143 0.70485,0 1.04775,-0.09525 0.36195,-0.09525 0.4953,-0.381 0.13335,-0.28575 0.13335,-0.8382 V 2.6368004 q 0,-0.55245 -0.13335,-0.81915 -0.1143,-0.2857499 -0.4572,-0.3809999 -0.3429,-0.1143 -1.04775,-0.1143 -0.0572,0 -0.0572,-0.1143 0,-0.1143 0.0572,-0.1143 0.4572,0 1.0287,0.0381 0.5715,0.01905 1.20015,0.01905 0.59055,0 1.35255,-0.05715 0.78105,-0.05715 1.31445,-0.05715 z m 1.84785,3.0670499 q 0,-1.04775 -0.32385,-1.65735 -0.3048,-0.6096 -0.8763,-0.8572499 -0.5715,-0.2667 -1.3716,-0.2667 -0.70485,0 -1.00965,0.24765 -0.3048,0.2476499 -0.3048,1.1048999 v 4.0004999 q 0.2667,0.0381 0.5715,0.05715 0.3048,0.01905 0.55245,0.01905 1.54305,0 2.15265,-0.66675 0.6096,-0.6858 0.6096,-1.9811999 z M 167.25755,11.45695 V 2.6368004 q 0,-0.55245 -0.1143,-0.81915 -0.1143,-0.2857499 -0.47625,-0.3809999 -0.3429,-0.1143 -1.0287,-0.1143 -0.0381,0 -0.0381,-0.1143 0,-0.1143 0.0381,-0.1143 0.4572,0 1.0287,0.0381 0.5715,0.01905 1.20015,0.01905 0.6858,0 1.23825,-0.01905 0.5715,-0.0381 1.00965,-0.0381 0.0572,0 0.0572,0.1143 0,0.1143 -0.0572,0.1143 -0.6858,0 -1.0287,0.1143 -0.3429,0.1143 -0.47625,0.4000499 -0.1143,0.28575 -0.1143,0.8382 V 11.45695 q 0,0.55245 0.1143,0.8382 0.1143,0.28575 0.4572,0.381 0.36195,0.09525 1.04775,0.09525 0.0572,0 0.0572,0.1143 0,0.1143 -0.0572,0.1143 -0.4572,0 -1.00965,-0.01905 -0.55245,-0.01905 -1.23825,-0.01905 -0.62865,0 -1.2192,0.01905 Q 166.07645,13 165.61925,13 q -0.0381,0 -0.0381,-0.1143 0,-0.1143 0.0381,-0.1143 0.6858,0 1.04775,-0.09525 0.36195,-0.09525 0.47625,-0.381 0.1143,-0.28575 0.1143,-0.8382 z m 4.78155,-1.2192 -3.02895,-3.8099997 0.9525,-0.762 2.7813,3.5432999 q 0.85725,1.1239498 1.4478,1.8097498 0.6096,0.6858 1.00965,1.0668 0.40005,0.36195 0.70485,0.51435 0.32385,0.13335 0.6096,0.1524 0.28575,0.01905 0.6477,0.01905 0.0572,0 0.0572,0.1143 0,0.1143 -0.0572,0.1143 -0.85725,0 -1.3716,0 -0.51435,0 -0.762,0 -0.17145,0 -0.28575,0 -0.0952,0.01905 -0.20955,0.01905 -0.2667,0 -0.43815,-0.09525 -0.1524,-0.09525 -0.36195,-0.381 -0.20955,-0.28575 -0.6096,-0.8382 -0.381,-0.55245 -1.08585,-1.46685 z m -4.3815,-2.7050998 4.9149,-4.8958498 q 0.70485,-0.7239 0.59055,-1.0096499 -0.0952,-0.3048 -1.08585,-0.3048 -0.0381,0 -0.0381,-0.1143 0,-0.1143 0.0381,-0.1143 0.47625,0 0.9525,0.0381 0.47625,0.01905 1.2573,0.01905 0.74295,0 1.1811,-0.01905 0.43815,-0.0381 0.8382,-0.0381 0.0572,0 0.0572,0.1143 0,0.1143 -0.0572,0.1143 -0.6858,0 -1.58115,0.32385 -0.89535,0.3047999 -1.7145,1.1048999 l -4.8768,4.7815498 z"
     id="text1"
     style="font-size:19.05px;font-family:'Cormorant Garamond', serif;-inkscape-font-specification:'Cormorant Garamond, serif';letter-spacing:6;text-anchor:middle;fill:#1a1a1a"
     aria-label="KNAPVÆRK" />
  <!-- Minimal dot separator -->
  <!-- Subtitle - LARS BJERRE - Very subtle -->
  <path
     d="m 64.939376,19.413526 v 2.480317 q 0,0.135389 0.02708,0.205791 0.02708,0.0704 0.102895,0.09206 0.07582,0.02166 0.222037,0.02166 h 0.324933 q 0.384503,0 0.649865,-0.216622 0.265361,-0.216621 0.35201,-0.574047 0.0054,-0.01625 0.03249,-0.01083 0.02708,0.0054 0.02708,0.02166 -0.01625,0.167882 -0.03249,0.406166 -0.01625,0.232868 -0.01625,0.433243 0,0.08123 -0.08123,0.08123 h -2.534473 q -0.01083,0 -0.01083,-0.03249 0,-0.03249 0.01083,-0.03249 0.173297,0 0.259946,-0.02708 0.09206,-0.02708 0.119142,-0.108311 0.03249,-0.08123 0.03249,-0.238284 V 19.40811 q 0,-0.15705 -0.03249,-0.232868 -0.02708,-0.08123 -0.119142,-0.108311 -0.08665,-0.03249 -0.259946,-0.03249 -0.01083,0 -0.01083,-0.03249 0,-0.03249 0.01083,-0.03249 0.129973,0 0.30327,0.01083 0.173298,0.0054 0.362841,0.0054 0.200375,0 0.368257,-0.0054 0.173297,-0.01083 0.30327,-0.01083 0.01625,0 0.01625,0.03249 0,0.03249 -0.01625,0.03249 -0.173297,0 -0.265361,0.03249 -0.08665,0.02708 -0.119142,0.108311 -0.02708,0.08123 -0.02708,0.238284 z m 7.799837,1.613831 0.0704,-0.135389 h 1.516351 l 0.03791,0.135389 z m 2.881067,1.261821 q 0.02166,0 0.02166,0.03249 0,0.03249 -0.02166,0.03249 -0.162466,0 -0.335763,-0.01083 -0.167882,-0.01083 -0.324933,-0.01083 -0.178712,0 -0.314101,0.01083 -0.129973,0.01083 -0.292439,0.01083 -0.02166,0 -0.02166,-0.03249 0,-0.03249 0.02166,-0.03249 0.243699,0 0.292439,-0.08665 0.04874,-0.08665 -0.08123,-0.341179 l -1.131848,-2.301605 0.222037,-0.362841 -1.072277,2.415331 q -0.140804,0.330348 -0.01083,0.503645 0.135389,0.173298 0.454906,0.173298 0.02708,0 0.02708,0.03249 0,0.03249 -0.02708,0.03249 -0.162467,0 -0.297855,-0.01083 -0.135389,-0.01083 -0.341179,-0.01083 -0.205791,0 -0.330348,0.01083 -0.119142,0.01083 -0.297855,0.01083 -0.02166,0 -0.02166,-0.03249 0,-0.03249 0.02166,-0.03249 0.14622,0 0.249115,-0.05957 0.108311,-0.05957 0.211206,-0.216622 0.102895,-0.162466 0.227453,-0.44949 l 1.164341,-2.626537 q 0.01083,-0.01625 0.04874,-0.01625 0.03791,0 0.04332,0.01625 l 1.326807,2.675277 q 0.124558,0.259946 0.222038,0.411581 0.09748,0.14622 0.184128,0.205791 0.08665,0.05957 0.184128,0.05957 z m 7.913562,0.06499 q -0.08123,0 -0.270777,-0.20579 -0.189543,-0.205791 -0.46032,-0.590294 -0.265362,-0.389919 -0.59571,-0.926058 l 0.433243,-0.129973 q 0.438659,0.655281 0.747345,1.050615 0.314101,0.389919 0.552385,0.563216 0.243699,0.173298 0.465736,0.173298 0.01083,0 0.01083,0.03249 0,0.03249 -0.01083,0.03249 -0.341179,0 -0.5578,0 -0.211206,0 -0.314102,0 z m -1.229327,-3.400959 q 0.471152,0 0.725682,0.189544 0.259946,0.184128 0.259946,0.509061 0,0.308685 -0.178713,0.552385 -0.173297,0.243699 -0.454905,0.379087 -0.276193,0.135389 -0.59571,0.135389 -0.06499,0 -0.140804,0 -0.07582,-0.0054 -0.135388,-0.01083 v 1.207665 q 0,0.157051 0.02708,0.238284 0.02708,0.08123 0.113726,0.108311 0.09206,0.02708 0.265361,0.02708 0.01625,0 0.01625,0.03249 0,0.03249 -0.01625,0.03249 -0.135388,0 -0.30327,-0.0054 -0.167882,-0.0054 -0.368257,-0.0054 -0.189543,0 -0.362841,0.0054 -0.173297,0.0054 -0.308686,0.0054 -0.01625,0 -0.01625,-0.03249 0,-0.03249 0.01625,-0.03249 0.178713,0 0.265362,-0.02708 0.08665,-0.02708 0.119142,-0.108311 0.03249,-0.08123 0.03249,-0.238284 V 19.40811 q 0,-0.15705 -0.03249,-0.232868 -0.02708,-0.08123 -0.113727,-0.108311 -0.08665,-0.03249 -0.265361,-0.03249 -0.01083,0 -0.01083,-0.03249 0,-0.03249 0.01083,-0.03249 0.135389,0 0.30327,0.01083 0.173298,0.0054 0.362841,0.0054 0.173298,0 0.389919,-0.01625 0.216622,-0.01625 0.395335,-0.01625 z m 0.44949,0.888148 q 0,-0.314101 -0.07582,-0.481983 -0.0704,-0.173297 -0.200375,-0.238283 -0.129973,-0.06499 -0.30327,-0.06499 -0.211206,0 -0.30327,0.08123 -0.08665,0.07582 -0.08665,0.281608 v 1.142679 q 0.07582,0.01083 0.162466,0.01625 0.08665,0.0054 0.151635,0.0054 0.362841,0 0.509061,-0.178712 0.14622,-0.184129 0.14622,-0.563217 z m 7.388251,-0.292439 q 0,0.211206 0.10831,0.368257 0.108311,0.151635 0.276193,0.276193 0.173297,0.124557 0.362841,0.243699 0.205791,0.124557 0.389919,0.265361 0.189544,0.140804 0.308686,0.324933 0.124557,0.178713 0.124557,0.438659 0,0.281608 -0.146219,0.498229 -0.14622,0.211206 -0.406166,0.335764 -0.25453,0.119142 -0.601125,0.119142 -0.146219,0 -0.308686,-0.02708 -0.15705,-0.02708 -0.297854,-0.07582 -0.135389,-0.04874 -0.222037,-0.102895 -0.02166,-0.01625 -0.03791,-0.03791 -0.01083,-0.02166 -0.01625,-0.06499 l -0.03249,-0.817747 q -0.0054,-0.02708 0.02166,-0.02708 0.03249,-0.0054 0.03791,0.01625 0.06499,0.162466 0.151635,0.346595 0.09206,0.178713 0.211206,0.330348 0.119142,0.151635 0.270777,0.249115 0.157051,0.09206 0.357426,0.09206 0.140804,0 0.265361,-0.04874 0.124558,-0.04874 0.205791,-0.167882 0.08123,-0.124557 0.08123,-0.335763 0,-0.254531 -0.119142,-0.433244 -0.113726,-0.184128 -0.292439,-0.319516 -0.178713,-0.135389 -0.373672,-0.254531 -0.189544,-0.124557 -0.362842,-0.25453 -0.173297,-0.129973 -0.287023,-0.297855 -0.108311,-0.173297 -0.108311,-0.416997 0,-0.297854 0.162466,-0.487398 0.162466,-0.189544 0.411581,-0.281608 0.254531,-0.09206 0.519892,-0.09206 0.178713,0 0.362841,0.03249 0.184129,0.03249 0.314102,0.09206 0.04874,0.01625 0.06499,0.04332 0.01625,0.02708 0.01625,0.05957 l 0.01083,0.731098 q 0,0.02166 -0.02708,0.02708 -0.02166,0.0054 -0.03249,-0.01083 -0.02708,-0.08123 -0.08123,-0.222037 -0.05416,-0.14622 -0.151635,-0.29244 -0.09748,-0.146219 -0.2437,-0.249114 -0.146219,-0.102896 -0.357425,-0.102896 -0.162467,0 -0.281608,0.06499 -0.119142,0.06499 -0.184129,0.184128 -0.06499,0.113727 -0.06499,0.281608 z m 14.771084,0.980213 0.0596,-0.08665 q 0.35201,0 0.61195,0.119142 0.26536,0.119142 0.41158,0.330348 0.14622,0.205791 0.14622,0.476568 0,0.281608 -0.15705,0.514476 -0.15163,0.227453 -0.42241,0.362841 -0.27078,0.129973 -0.61196,0.129973 -0.15705,0 -0.37908,-0.01625 -0.22204,-0.01625 -0.40617,-0.01625 -0.18954,0 -0.36284,0.0054 -0.1733,0.0054 -0.30869,0.0054 -0.0162,0 -0.0162,-0.03249 0,-0.03249 0.0162,-0.03249 0.16788,0 0.25453,-0.02708 0.0921,-0.02708 0.12456,-0.108311 0.0379,-0.08123 0.0379,-0.238284 V 19.40811 q 0,-0.15705 -0.0325,-0.232868 -0.0325,-0.08123 -0.12456,-0.108311 -0.0866,-0.03249 -0.25453,-0.03249 -0.0108,0 -0.0108,-0.03249 0,-0.03249 0.0108,-0.03249 0.13539,0 0.30327,0.01083 0.1733,0.0054 0.36284,0.0054 0.15163,0 0.32493,-0.01625 0.1733,-0.01625 0.33035,-0.01625 0.32493,0 0.54155,0.08665 0.22204,0.08123 0.33577,0.238283 0.11372,0.157051 0.11372,0.379088 0,0.30327 -0.23286,0.541554 -0.23287,0.232868 -0.66612,0.330348 z m -0.18412,-1.467611 q -0.10832,0 -0.17872,0.02708 -0.065,0.02708 -0.0921,0.102896 -0.0271,0.07582 -0.0271,0.227452 v 1.061446 l -0.19496,-0.03791 q 0.17871,0.0054 0.29244,0.01083 0.11373,0 0.12456,0 0.33576,0 0.49281,-0.216622 0.15705,-0.216622 0.15705,-0.530723 0,-0.200375 -0.065,-0.346595 -0.0596,-0.146219 -0.18955,-0.222037 -0.12455,-0.07582 -0.31951,-0.07582 z m 0.13538,3.189753 q 0.38451,0 0.5578,-0.19496 0.1733,-0.200375 0.1733,-0.5578 0,-0.40075 -0.2112,-0.655281 -0.20579,-0.25453 -0.62821,-0.25453 -0.0812,0 -0.21662,0.0054 -0.13539,0 -0.28161,0.02708 l 0.1733,-0.06499 v 1.3593 q 0,0.113727 0.0271,0.189544 0.0271,0.07582 0.11914,0.113727 0.0975,0.03249 0.28702,0.03249 z m 8.13561,-3.281818 q 0.0108,0 0.0108,0.03249 0,0.03249 -0.0108,0.03249 -0.15164,0 -0.22746,0.03249 -0.0704,0.03249 -0.0975,0.113727 -0.0217,0.08123 -0.0217,0.238283 v 3.00021 q 0,0.579462 -0.28161,0.915226 -0.28161,0.335763 -0.8015,0.335763 -0.19496,0 -0.3141,-0.08123 -0.12456,-0.07582 -0.12456,-0.211206 0,-0.09206 0.0596,-0.167882 0.0596,-0.07582 0.18955,-0.07582 0.11914,0 0.17871,0.05957 0.065,0.06499 0.1029,0.146219 0.0379,0.08665 0.0758,0.151636 0.0379,0.06499 0.10832,0.06499 0.1408,0 0.2112,-0.194959 0.0704,-0.19496 0.0704,-0.655281 V 19.40811 q 0,-0.15705 -0.0379,-0.232868 -0.0325,-0.08123 -0.13538,-0.108311 -0.1029,-0.03249 -0.30869,-0.03249 -0.0108,0 -0.0108,-0.03249 0,-0.03249 0.0108,-0.03249 0.16247,0 0.34659,0.01083 0.18955,0.0054 0.38992,0.0054 0.18413,0 0.33577,-0.0054 0.15705,-0.01083 0.28161,-0.01083 z m 7.79983,3.384713 h -2.35034 q -0.0163,0 -0.0163,-0.03249 0,-0.03249 0.0163,-0.03249 0.17871,0 0.26536,-0.02708 0.0867,-0.02708 0.11372,-0.108311 0.0325,-0.08123 0.0325,-0.238284 V 19.40811 q 0,-0.15705 -0.0325,-0.232868 -0.0271,-0.08123 -0.11372,-0.108311 -0.0866,-0.03249 -0.26536,-0.03249 -0.0163,0 -0.0163,-0.03249 0,-0.03249 0.0163,-0.03249 h 2.25286 q 0.0542,0 0.0542,0.04874 l 0.0108,0.704021 q 0,0.01083 -0.0271,0.01625 -0.0271,0 -0.0379,-0.01625 -0.0596,-0.308686 -0.24911,-0.460321 -0.18955,-0.151635 -0.49823,-0.151635 h -0.22204 q -0.13539,0 -0.21662,0.03249 -0.0758,0.02708 -0.10831,0.09748 -0.0325,0.06499 -0.0325,0.178713 v 2.474902 q 0,0.113727 0.0271,0.189544 0.0325,0.0704 0.0975,0.102895 0.065,0.02708 0.18413,0.02708 h 0.26536 q 0.36826,0 0.59571,-0.173297 0.22745,-0.178713 0.32493,-0.525308 0.005,-0.01625 0.0325,-0.01083 0.0325,0.0054 0.0325,0.01625 -0.0217,0.151635 -0.0379,0.362841 -0.0162,0.211206 -0.0162,0.389919 0,0.08123 -0.0812,0.08123 z m -0.30327,-1.223912 q 0,-0.227453 -0.15164,-0.346595 -0.15163,-0.119141 -0.4549,-0.119141 h -0.75818 v -0.140804 h 0.76359 q 0.30328,0 0.44949,-0.102896 0.14622,-0.102895 0.14622,-0.297854 0,-0.01625 0.0271,-0.01625 0.0325,0 0.0325,0.01625 0,0.173297 -0.005,0.270777 0,0.09748 0,0.200375 0,0.129973 0.005,0.259945 0.0108,0.124558 0.0108,0.276193 0,0.01083 -0.0325,0.01083 -0.0325,0 -0.0325,-0.01083 z m 8.22766,1.223912 q -0.0487,0 -0.19495,-0.216621 -0.14622,-0.222038 -0.33577,-0.606541 -0.18413,-0.389919 -0.37367,-0.877318 l 0.37909,-0.151635 q 0.30327,0.655281 0.53072,1.050615 0.23287,0.389919 0.41158,0.563216 0.18413,0.173298 0.3466,0.173298 0.0162,0 0.0162,0.03249 0,0.03249 -0.0162,0.03249 -0.29244,0 -0.48199,0 -0.18954,0 -0.28161,0 z m -0.85024,-3.400959 q 0.47657,0 0.7311,0.189544 0.25453,0.184128 0.25453,0.509061 0,0.308685 -0.17871,0.552385 -0.1733,0.243699 -0.45491,0.379087 -0.2816,0.135389 -0.60112,0.135389 -0.065,0 -0.1408,0 -0.0758,-0.0054 -0.13539,-0.01083 v 1.207665 q 0,0.157051 0.0271,0.238284 0.0271,0.08123 0.11373,0.108311 0.0921,0.02708 0.26536,0.02708 0.0162,0 0.0162,0.03249 0,0.03249 -0.0162,0.03249 -0.13539,0 -0.30327,-0.0054 -0.16788,-0.0054 -0.36825,-0.0054 -0.18955,0 -0.36285,0.0054 -0.17329,0.0054 -0.30868,0.0054 -0.0162,0 -0.0162,-0.03249 0,-0.03249 0.0162,-0.03249 0.17871,0 0.26536,-0.02708 0.0867,-0.02708 0.11914,-0.108311 0.0325,-0.08123 0.0325,-0.238284 V 19.40811 q 0,-0.15705 -0.0325,-0.232868 -0.0271,-0.08123 -0.11372,-0.108311 -0.0866,-0.03249 -0.26537,-0.03249 -0.0108,0 -0.0108,-0.03249 0,-0.03249 0.0108,-0.03249 0.13539,0 0.30327,0.01083 0.1733,0.0054 0.36285,0.0054 0.11914,0 0.25453,-0.0054 0.1408,-0.01083 0.2816,-0.01625 0.14081,-0.01083 0.25453,-0.01083 z m 0.45491,0.888148 q 0,-0.314101 -0.0758,-0.481983 -0.0704,-0.173297 -0.20579,-0.238283 -0.12997,-0.06499 -0.30868,-0.06499 -0.21121,0 -0.30327,0.08123 -0.0867,0.07582 -0.0867,0.281608 v 1.142679 q 0.0758,0.01083 0.16246,0.01625 0.0867,0.0054 0.15164,0.0054 0.36826,0 0.51447,-0.178712 0.15164,-0.184129 0.15164,-0.563217 z m 9.05083,2.512811 q -0.0812,0 -0.27077,-0.20579 -0.18955,-0.205791 -0.46033,-0.590294 -0.26536,-0.389919 -0.5957,-0.926058 l 0.43324,-0.129973 q 0.43866,0.655281 0.74734,1.050615 0.3141,0.389919 0.55239,0.563216 0.2437,0.173298 0.46573,0.173298 0.0108,0 0.0108,0.03249 0,0.03249 -0.0108,0.03249 -0.34117,0 -0.5578,0 -0.2112,0 -0.3141,0 z m -1.22932,-3.400959 q 0.47115,0 0.72568,0.189544 0.25994,0.184128 0.25994,0.509061 0,0.308685 -0.17871,0.552385 -0.1733,0.243699 -0.4549,0.379087 -0.2762,0.135389 -0.59571,0.135389 -0.065,0 -0.14081,0 -0.0758,-0.0054 -0.13539,-0.01083 v 1.207665 q 0,0.157051 0.0271,0.238284 0.0271,0.08123 0.11373,0.108311 0.0921,0.02708 0.26536,0.02708 0.0163,0 0.0163,0.03249 0,0.03249 -0.0163,0.03249 -0.13539,0 -0.30327,-0.0054 -0.16788,-0.0054 -0.36826,-0.0054 -0.18954,0 -0.36284,0.0054 -0.1733,0.0054 -0.30869,0.0054 -0.0162,0 -0.0162,-0.03249 0,-0.03249 0.0162,-0.03249 0.17872,0 0.26537,-0.02708 0.0866,-0.02708 0.11914,-0.108311 0.0325,-0.08123 0.0325,-0.238284 V 19.40811 q 0,-0.15705 -0.0325,-0.232868 -0.0271,-0.08123 -0.11373,-0.108311 -0.0866,-0.03249 -0.26536,-0.03249 -0.0108,0 -0.0108,-0.03249 0,-0.03249 0.0108,-0.03249 0.13539,0 0.30327,0.01083 0.1733,0.0054 0.36284,0.0054 0.1733,0 0.38992,-0.01625 0.21662,-0.01625 0.39534,-0.01625 z m 0.44948,0.888148 q 0,-0.314101 -0.0758,-0.481983 -0.0704,-0.173297 -0.20038,-0.238283 -0.12997,-0.06499 -0.30327,-0.06499 -0.2112,0 -0.30327,0.08123 -0.0867,0.07582 -0.0867,0.281608 v 1.142679 q 0.0758,0.01083 0.16247,0.01625 0.0866,0.0054 0.15163,0.0054 0.36285,0 0.50907,-0.178712 0.14621,-0.184129 0.14621,-0.563217 z m 9.17538,2.512811 h -2.35034 q -0.0162,0 -0.0162,-0.03249 0,-0.03249 0.0162,-0.03249 0.17871,0 0.26536,-0.02708 0.0866,-0.02708 0.11372,-0.108311 0.0325,-0.08123 0.0325,-0.238284 V 19.40811 q 0,-0.15705 -0.0325,-0.232868 -0.0271,-0.08123 -0.11372,-0.108311 -0.0867,-0.03249 -0.26536,-0.03249 -0.0162,0 -0.0162,-0.03249 0,-0.03249 0.0162,-0.03249 h 2.25286 q 0.0542,0 0.0542,0.04874 l 0.0108,0.704021 q 0,0.01083 -0.0271,0.01625 -0.0271,0 -0.0379,-0.01625 -0.0596,-0.308686 -0.24911,-0.460321 -0.18955,-0.151635 -0.49823,-0.151635 h -0.22204 q -0.13539,0 -0.21662,0.03249 -0.0758,0.02708 -0.10831,0.09748 -0.0325,0.06499 -0.0325,0.178713 v 2.474902 q 0,0.113727 0.0271,0.189544 0.0325,0.0704 0.0975,0.102895 0.065,0.02708 0.18413,0.02708 h 0.26536 q 0.36826,0 0.59571,-0.173297 0.22745,-0.178713 0.32493,-0.525308 0.005,-0.01625 0.0325,-0.01083 0.0325,0.0054 0.0325,0.01625 -0.0217,0.151635 -0.0379,0.362841 -0.0163,0.211206 -0.0163,0.389919 0,0.08123 -0.0812,0.08123 z m -0.30327,-1.223912 q 0,-0.227453 -0.15164,-0.346595 -0.15163,-0.119141 -0.4549,-0.119141 h -0.75818 v -0.140804 h 0.76359 q 0.30327,0 0.44949,-0.102896 0.14622,-0.102895 0.14622,-0.297854 0,-0.01625 0.0271,-0.01625 0.0325,0 0.0325,0.01625 0,0.173297 -0.005,0.270777 0,0.09748 0,0.200375 0,0.129973 0.005,0.259945 0.0108,0.124558 0.0108,0.276193 0,0.01083 -0.0325,0.01083 -0.0325,0 -0.0325,-0.01083 z"
     id="text2"
     style="font-weight:600;font-size:5.41554px;font-family:'Cormorant Garamond', serif;-inkscape-font-specification:'Cormorant Garamond, serif Semi-Bold';letter-spacing:5;text-anchor:middle;fill:#484848"
     aria-label="LARS BJERRE" />
</svg>
