<?xml version="1.0" encoding="UTF-8" standalone="no"?>
<svg
   width="120mm"
   height="8mm"
   viewBox="0 0 120 8"
   version="1.1"
   id="svg1"
   xmlns="http://www.w3.org/2000/svg"
   xmlns:svg="http://www.w3.org/2000/svg">
  <defs
     id="defs1">
    <style
       id="style1">
      @import url('https://fonts.googleapis.com/css2?family=Cormorant+Garamond:wght@300&amp;display=swap');
    </style>
  </defs>
  <!-- Main wordmark - KNAPVÆRK -->
  <path
     d="M 35.853998,5.014 V 2.236 q 0,-0.174 -0.042,-0.258 -0.036,-0.09 -0.15,-0.12 -0.114,-0.036 -0.342,-0.036 -0.012,0 -0.012,-0.036 0,-0.036 0.012,-0.036 0.144,0 0.318,0.012 0.18,0.006 0.372,0.006 0.21,0 0.384,-0.006 0.174,-0.012 0.312,-0.012 0.012,0 0.012,0.036 0,0.036 -0.012,0.036 -0.228,0 -0.342,0.036 -0.114,0.036 -0.156,0.126 -0.036,0.09 -0.036,0.264 v 2.766 q 0,0.174 0.036,0.264 0.036,0.09 0.15,0.12 0.12,0.03 0.348,0.03 0.012,0 0.012,0.036 0,0.036 -0.012,0.036 -0.144,0 -0.318,-0.006 -0.168,-0.006 -0.378,-0.006 -0.192,0 -0.372,0.006 -0.18,0.006 -0.324,0.006 -0.012,0 -0.012,-0.036 0,-0.036 0.012,-0.036 0.228,0 0.342,-0.03 0.12,-0.03 0.156,-0.12 0.042,-0.09 0.042,-0.264 z m 1.482,-0.384 -0.984,-1.224 0.252,-0.18 0.864,1.086 q 0.282,0.354 0.474,0.576 0.198,0.216 0.33,0.33 0.132,0.114 0.234,0.162 0.102,0.042 0.192,0.048 0.096,0 0.21,0 0.018,0 0.018,0.036 0,0.036 -0.018,0.036 -0.27,0 -0.432,0 -0.162,0 -0.24,0 -0.042,0 -0.072,0 -0.024,0.006 -0.054,0.006 -0.084,0 -0.132,-0.03 -0.048,-0.03 -0.114,-0.12 -0.06,-0.09 -0.18,-0.264 -0.12,-0.174 -0.348,-0.462 z m -1.386,-0.894 1.542,-1.536 q 0.228,-0.228 0.198,-0.3 -0.024,-0.078 -0.342,-0.078 -0.012,0 -0.012,-0.036 0,-0.036 0.012,-0.036 0.144,0 0.288,0.012 0.15,0.006 0.39,0.006 0.222,0 0.348,-0.006 0.132,-0.012 0.252,-0.012 0.018,0 0.018,0.036 0,0.036 -0.018,0.036 -0.204,0 -0.474,0.084 -0.27,0.084 -0.522,0.33 l -1.536,1.494 z m 6.250001,1.14 V 1.888 l 0.132,0.012 v 2.976 q 0,0.306 0.102,0.432 0.102,0.12 0.354,0.12 0.018,0 0.018,0.036 0,0.036 -0.018,0.036 -0.114,0 -0.24,-0.006 -0.12,-0.006 -0.27,-0.006 -0.144,0 -0.276,0.006 -0.132,0.006 -0.252,0.006 -0.012,0 -0.012,-0.036 0,-0.036 0.012,-0.036 0.264,0 0.354,-0.12 0.096,-0.126 0.096,-0.432 z m 3.018,0.69 q 0,0.012 -0.03,0.012 -0.03,0.006 -0.042,0 l -2.712,-3.336 q -0.204,-0.246 -0.366,-0.33 -0.156,-0.09 -0.3,-0.09 -0.018,0 -0.018,-0.036 0,-0.036 0.018,-0.036 0.102,0 0.21,0.006 0.108,0.006 0.192,0.006 0.084,0 0.156,-0.006 0.078,-0.006 0.114,-0.006 0.078,0 0.108,0.072 0.03,0.066 0.168,0.24 l 2.454,3.048 z m 0,-3.186 v 3.186 l -0.132,-0.186 v -3 q 0,-0.306 -0.096,-0.432 -0.096,-0.126 -0.348,-0.126 -0.012,0 -0.012,-0.036 0,-0.036 0.012,-0.036 0.12,0 0.24,0.012 0.126,0.006 0.276,0.006 0.138,0 0.276,-0.006 0.138,-0.012 0.252,-0.012 0.018,0 0.018,0.036 0,0.036 -0.018,0.036 -0.258,0 -0.366,0.126 -0.102,0.126 -0.102,0.432 z m 4.324002,1.398 0.054,-0.108 h 1.554 l 0.042,0.108 z m 2.964,1.65 q 0.024,0 0.024,0.036 0,0.036 -0.024,0.036 -0.168,0 -0.348,-0.012 -0.174,-0.012 -0.336,-0.012 -0.186,0 -0.324,0.012 -0.132,0.012 -0.294,0.012 -0.024,0 -0.024,-0.036 0,-0.036 0.024,-0.036 0.336,0 0.42,-0.09 0.09,-0.09 -0.024,-0.342 l -1.356,-2.916 0.114,-0.102 -1.158,2.784 q -0.15,0.366 -0.024,0.516 0.126,0.15 0.534,0.15 0.03,0 0.03,0.036 0,0.036 -0.03,0.036 -0.18,0 -0.33,-0.012 -0.15,-0.012 -0.378,-0.012 -0.21,0 -0.342,0.012 -0.126,0.012 -0.306,0.012 -0.024,0 -0.024,-0.036 0,-0.036 0.024,-0.036 0.162,0 0.282,-0.06 0.12,-0.06 0.222,-0.216 0.108,-0.156 0.228,-0.444 l 1.254,-3.018 q 0.012,-0.018 0.036,-0.018 0.03,0 0.036,0.018 l 1.392,2.988 q 0.138,0.3 0.246,0.468 0.108,0.162 0.216,0.222 0.108,0.06 0.24,0.06 z m 3.64,-0.438 q 0,0.18 0.048,0.276 0.054,0.09 0.216,0.126 0.162,0.036 0.486,0.036 0.018,0 0.018,0.036 0,0.036 -0.018,0.036 -0.192,0 -0.42,-0.006 -0.222,-0.006 -0.486,-0.006 -0.192,0 -0.372,0.006 -0.18,0.006 -0.324,0.006 -0.012,0 -0.012,-0.036 0,-0.036 0.012,-0.036 0.228,0 0.342,-0.03 0.114,-0.03 0.15,-0.12 0.042,-0.09 0.042,-0.264 V 2.236 q 0,-0.174 -0.042,-0.258 -0.036,-0.09 -0.15,-0.12 -0.114,-0.036 -0.342,-0.036 -0.012,0 -0.012,-0.036 0,-0.036 0.012,-0.036 0.144,0 0.318,0.012 0.18,0.006 0.372,0.006 0.156,0 0.378,-0.018 0.222,-0.018 0.462,-0.018 0.33,0 0.6,0.102 0.27,0.102 0.426,0.318 0.162,0.216 0.162,0.564 0,0.318 -0.12,0.546 -0.12,0.228 -0.318,0.378 -0.192,0.144 -0.426,0.216 -0.234,0.072 -0.462,0.072 -0.078,0 -0.156,-0.006 -0.072,-0.006 -0.138,-0.024 -0.024,-0.006 -0.018,-0.042 0.012,-0.042 0.03,-0.036 0.054,0.012 0.108,0.018 0.06,0.006 0.108,0.006 0.264,0 0.498,-0.108 0.234,-0.108 0.378,-0.33 0.144,-0.228 0.144,-0.57 0,-0.33 -0.132,-0.558 -0.126,-0.228 -0.342,-0.348 -0.216,-0.12 -0.48,-0.12 -0.216,0 -0.336,0.024 -0.114,0.018 -0.162,0.108 -0.042,0.09 -0.042,0.306 z m 8.644005,-3.24 q 0.018,0 0.018,0.036 0,0.036 -0.018,0.036 -0.186,0 -0.33,0.078 -0.138,0.078 -0.246,0.336 l -1.32,3.258 q -0.006,0.024 -0.066,0.024 -0.054,0 -0.066,-0.024 l -1.482,-3.246 q -0.102,-0.234 -0.216,-0.33 -0.114,-0.096 -0.306,-0.096 -0.018,0 -0.018,-0.036 0,-0.036 0.018,-0.036 0.084,0 0.168,0.006 0.09,0.006 0.174,0.012 0.09,0 0.168,0 0.144,0 0.264,0 0.12,-0.006 0.216,-0.012 0.102,-0.006 0.192,-0.006 0.018,0 0.018,0.036 0,0.036 -0.018,0.036 -0.228,0 -0.324,0.078 -0.096,0.072 0.006,0.288 l 1.344,2.97 -0.162,0.222 1.284,-3.18 q 0.084,-0.21 -0.006,-0.294 -0.09,-0.084 -0.426,-0.084 -0.018,0 -0.018,-0.036 0,-0.036 0.018,-0.036 0.138,0 0.264,0.012 0.132,0.006 0.336,0.006 0.174,0 0.276,-0.006 0.108,-0.012 0.258,-0.012 z m 2.019995,3.75 q -0.024,0 -0.024,-0.036 0,-0.036 0.024,-0.036 0.174,0 0.408,-0.192 0.234,-0.198 0.468,-0.528 l 1.842,-2.652 q 0.114,-0.156 0.048,-0.192 -0.06,-0.042 -0.432,-0.042 -0.012,0 -0.012,-0.036 0,-0.036 0.012,-0.036 h 2.304 q 0.054,0 0.054,0.054 l 0.012,0.726 q 0,0.018 -0.036,0.018 -0.03,0 -0.03,-0.018 0,-0.198 -0.078,-0.348 -0.072,-0.15 -0.204,-0.234 -0.132,-0.084 -0.306,-0.084 h -0.348 q -0.216,0 -0.33,0.03 -0.108,0.024 -0.15,0.108 -0.036,0.078 -0.036,0.24 V 4.99 q 0,0.168 0.036,0.252 0.042,0.084 0.15,0.114 0.114,0.03 0.33,0.03 h 0.486 q 0.162,0 0.288,-0.096 0.132,-0.096 0.222,-0.264 0.09,-0.174 0.12,-0.402 0,-0.018 0.036,-0.012 0.036,0 0.036,0.018 -0.024,0.156 -0.042,0.378 -0.012,0.216 -0.012,0.402 0,0.09 -0.096,0.09 h -2.406 q -0.012,0 -0.012,-0.036 0,-0.036 0.012,-0.036 0.228,0 0.342,-0.03 0.114,-0.03 0.15,-0.12 0.042,-0.09 0.042,-0.264 V 1.972 l 0.132,-0.096 -2.004,2.886 q -0.24,0.342 -0.168,0.504 0.072,0.162 0.456,0.162 0.03,0 0.03,0.036 0,0.036 -0.03,0.036 -0.18,0 -0.33,-0.012 -0.15,-0.012 -0.378,-0.012 -0.192,0 -0.306,0.012 -0.114,0.012 -0.27,0.012 z m 1.71,-1.896 0.09,-0.114 h 1.236 l 0.042,0.114 z m 2.694,0.486 q 0,-0.27 -0.114,-0.378 -0.114,-0.108 -0.402,-0.108 h -0.852 V 3.49 h 0.87 q 0.276,0 0.384,-0.09 0.108,-0.096 0.108,-0.324 0,-0.012 0.036,-0.012 0.036,0 0.036,0.012 0,0.174 -0.006,0.27 0,0.096 0,0.204 0,0.132 0.006,0.264 0.006,0.126 0.006,0.276 0,0.012 -0.036,0.012 -0.036,0 -0.036,-0.012 z m 6.652001,1.41 q -0.102,0 -0.336,-0.234 -0.234,-0.234 -0.564,-0.666 -0.33,-0.438 -0.738,-1.032 l 0.288,-0.09 q 0.516,0.726 0.876,1.158 0.36,0.426 0.636,0.612 0.276,0.18 0.534,0.18 0.018,0 0.018,0.036 0,0.036 -0.018,0.036 -0.27,0 -0.444,0 -0.168,0 -0.252,0 z m -1.566,-3.768 q 0.462,0 0.702,0.222 0.246,0.222 0.246,0.576 0,0.318 -0.186,0.576 -0.186,0.258 -0.498,0.408 -0.306,0.15 -0.678,0.15 -0.054,0 -0.126,-0.006 -0.072,-0.006 -0.132,-0.012 v 1.368 q 0,0.174 0.036,0.264 0.036,0.09 0.15,0.12 0.12,0.03 0.348,0.03 0.018,0 0.018,0.036 0,0.036 -0.018,0.036 -0.144,0 -0.318,-0.006 -0.168,-0.006 -0.378,-0.006 -0.192,0 -0.372,0.006 -0.18,0.006 -0.324,0.006 -0.012,0 -0.012,-0.036 0,-0.036 0.012,-0.036 0.228,0 0.342,-0.03 0.12,-0.03 0.162,-0.12 0.042,-0.09 0.042,-0.264 V 2.236 q 0,-0.174 -0.042,-0.258 -0.036,-0.09 -0.15,-0.12 -0.114,-0.036 -0.342,-0.036 -0.018,0 -0.018,-0.036 0,-0.036 0.018,-0.036 0.138,0 0.312,0.012 0.18,0.006 0.372,0.006 0.186,0 0.432,-0.018 0.246,-0.018 0.402,-0.018 z m 0.612,0.96 q 0,-0.324 -0.108,-0.516 -0.102,-0.192 -0.3,-0.276 -0.192,-0.09 -0.468,-0.09 -0.216,0 -0.312,0.078 -0.096,0.078 -0.096,0.36 v 1.26 q 0.084,0.006 0.18,0.012 0.102,0.006 0.18,0.006 0.516,0 0.72,-0.216 0.204,-0.216 0.204,-0.618 z m 4.851999,2.322 V 2.236 q 0,-0.174 -0.042,-0.258 -0.036,-0.09 -0.15,-0.12 -0.114,-0.036 -0.342,-0.036 -0.012,0 -0.012,-0.036 0,-0.036 0.012,-0.036 0.144,0 0.318,0.012 0.18,0.006 0.372,0.006 0.21,0 0.384,-0.006 0.174,-0.012 0.312,-0.012 0.012,0 0.012,0.036 0,0.036 -0.012,0.036 -0.228,0 -0.342,0.036 -0.114,0.036 -0.156,0.126 -0.036,0.09 -0.036,0.264 v 2.766 q 0,0.174 0.036,0.264 0.036,0.09 0.15,0.12 0.12,0.03 0.348,0.03 0.012,0 0.012,0.036 0,0.036 -0.012,0.036 -0.144,0 -0.318,-0.006 -0.168,-0.006 -0.378,-0.006 -0.192,0 -0.372,0.006 -0.18,0.006 -0.324,0.006 -0.012,0 -0.012,-0.036 0,-0.036 0.012,-0.036 0.228,0 0.342,-0.03 0.12,-0.03 0.156,-0.12 0.042,-0.09 0.042,-0.264 z m 1.482,-0.384 -0.984,-1.224 0.252,-0.18 0.864,1.086 q 0.282,0.354 0.474,0.576 0.198,0.216 0.33,0.33 0.132,0.114 0.234,0.162 0.102,0.042 0.192,0.048 0.096,0 0.21,0 0.018,0 0.018,0.036 0,0.036 -0.018,0.036 -0.27,0 -0.432,0 -0.162,0 -0.24,0 -0.042,0 -0.072,0 -0.024,0.006 -0.054,0.006 -0.084,0 -0.132,-0.03 -0.048,-0.03 -0.114,-0.12 -0.06,-0.09 -0.18,-0.264 -0.12,-0.174 -0.348,-0.462 z m -1.386,-0.894 1.542,-1.536 q 0.228,-0.228 0.198,-0.3 -0.024,-0.078 -0.342,-0.078 -0.012,0 -0.012,-0.036 0,-0.036 0.012,-0.036 0.144,0 0.288,0.012 0.15,0.006 0.39,0.006 0.222,0 0.348,-0.006 0.132,-0.012 0.252,-0.012 0.018,0 0.018,0.036 0,0.036 -0.018,0.036 -0.204,0 -0.474,0.084 -0.27,0.084 -0.522,0.33 l -1.536,1.494 z"
     id="text1"
     style="font-weight:300;font-size:6px;font-family:'Cormorant Garamond', serif;letter-spacing:2.5;text-anchor:middle;fill:#1a1a1a"
     aria-label="KNAPVÆRK" />
</svg>
