<?xml version="1.0" encoding="UTF-8" standalone="no"?>
<svg
   width="210mm"
   height="30mm"
   viewBox="0 0 210 30"
   version="1.1"
   id="svg2"
   sodipodi:docname="knapvaerk-logo-minimal.svg"
   inkscape:version="1.4.2 (f4327f4, 2025-05-13)"
   xmlns:inkscape="http://www.inkscape.org/namespaces/inkscape"
   xmlns:sodipodi="http://sodipodi.sourceforge.net/DTD/sodipodi-0.dtd"
   xmlns="http://www.w3.org/2000/svg"
   xmlns:svg="http://www.w3.org/2000/svg">
  <sodipodi:namedview
     id="namedview2"
     pagecolor="#ffffff"
     bordercolor="#000000"
     borderopacity="0.25"
     inkscape:showpageshadow="2"
     inkscape:pageopacity="0.0"
     inkscape:pagecheckerboard="0"
     inkscape:deskcolor="#d1d1d1"
     inkscape:document-units="mm"
     inkscape:zoom="2.237619"
     inkscape:cx="384.56054"
     inkscape:cy="56.533305"
     inkscape:window-width="1920"
     inkscape:window-height="1009"
     inkscape:window-x="-8"
     inkscape:window-y="-8"
     inkscape:window-maximized="1"
     inkscape:current-layer="svg2" />
  <defs
     id="defs1">
    <style
       id="style1">
      @import url('https://fonts.googleapis.com/css2?family=Cormorant+Garamond:wght@300&amp;display=swap');
    </style>
  </defs>
  <!-- Main Title - KNAPVÆRK - Very light and spacious -->
  <path
     d="M 53.207995,13.615499 V 8.0594987 q 0,-0.348 -0.084,-0.516 -0.072,-0.18 -0.3,-0.24 -0.228,-0.072 -0.684,-0.072 -0.024,0 -0.024,-0.072 0,-0.072 0.024,-0.072 0.288,0 0.636,0.024 0.36,0.012 0.744,0.012 0.42,0 0.768,-0.012 0.348,-0.024 0.624,-0.024 0.024,0 0.024,0.072 0,0.072 -0.024,0.072 -0.456,0 -0.684,0.072 -0.228,0.072 -0.312,0.252 -0.072,0.18 -0.072,0.528 v 5.5320003 q 0,0.348 0.072,0.528 0.072,0.18 0.3,0.24 0.24,0.06 0.696,0.06 0.024,0 0.024,0.072 0,0.072 -0.024,0.072 -0.288,0 -0.636,-0.012 -0.336,-0.012 -0.756,-0.012 -0.384,0 -0.744,0.012 -0.36,0.012 -0.648,0.012 -0.024,0 -0.024,-0.072 0,-0.072 0.024,-0.072 0.456,0 0.684,-0.06 0.24,-0.06 0.312,-0.24 0.084,-0.18 0.084,-0.528 z m 2.964,-0.768 -1.968,-2.448 0.504,-0.36 1.728,2.172 q 0.564,0.708 0.948,1.152 0.396,0.432 0.66,0.66 0.264,0.228 0.468,0.324 0.204,0.084 0.384,0.096 0.192,0 0.42,0 0.036,0 0.036,0.072 0,0.072 -0.036,0.072 -0.54,0 -0.864,0 -0.324,0 -0.48,0 -0.084,0 -0.144,0 -0.048,0.012 -0.108,0.012 -0.168,0 -0.264,-0.06 -0.096,-0.06 -0.228,-0.24 -0.12,-0.18 -0.36,-0.528 -0.24,-0.348 -0.696,-0.924 z m -2.772,-1.788 3.084,-3.0720003 q 0.456,-0.456 0.396,-0.6 -0.048,-0.156 -0.684,-0.156 -0.024,0 -0.024,-0.072 0,-0.072 0.024,-0.072 0.288,0 0.576,0.024 0.3,0.012 0.78,0.012 0.444,0 0.696,-0.012 0.264,-0.024 0.504,-0.024 0.036,0 0.036,0.072 0,0.072 -0.036,0.072 -0.408,0 -0.948,0.168 -0.54,0.168 -1.044,0.66 l -3.072,2.9880003 z m 13.500002,2.28 V 7.3634987 l 0.264,0.024 v 5.9520003 q 0,0.612 0.204,0.864 0.204,0.24 0.708,0.24 0.036,0 0.036,0.072 0,0.072 -0.036,0.072 -0.228,0 -0.48,-0.012 -0.24,-0.012 -0.54,-0.012 -0.288,0 -0.552,0.012 -0.264,0.012 -0.504,0.012 -0.024,0 -0.024,-0.072 0,-0.072 0.024,-0.072 0.528,0 0.708,-0.24 0.192,-0.252 0.192,-0.864 z m 6.036,1.38 q 0,0.024 -0.06,0.024 -0.06,0.012 -0.084,0 l -5.424,-6.6720003 q -0.408,-0.492 -0.732,-0.66 -0.312,-0.18 -0.6,-0.18 -0.036,0 -0.036,-0.072 0,-0.072 0.036,-0.072 0.204,0 0.42,0.012 0.216,0.012 0.384,0.012 0.168,0 0.312,-0.012 0.156,-0.012 0.228,-0.012 0.156,0 0.216,0.144 0.06,0.132 0.336,0.48 l 4.908,6.0960003 z m 0,-6.3720003 v 6.3720003 l -0.264,-0.372 V 8.3474987 q 0,-0.612 -0.192,-0.864 -0.192,-0.252 -0.696,-0.252 -0.024,0 -0.024,-0.072 0,-0.072 0.024,-0.072 0.24,0 0.48,0.024 0.252,0.012 0.552,0.012 0.276,0 0.552,-0.012 0.276,-0.024 0.504,-0.024 0.036,0 0.036,0.072 0,0.072 -0.036,0.072 -0.516,0 -0.732,0.252 -0.204,0.252 -0.204,0.864 z m 9.648005,2.7960003 0.108,-0.216 h 3.108 l 0.084,0.216 z m 5.928,3.3 q 0.048,0 0.048,0.072 0,0.072 -0.048,0.072 -0.336,0 -0.696,-0.024 -0.348,-0.024 -0.672,-0.024 -0.372,0 -0.648,0.024 -0.264,0.024 -0.588,0.024 -0.048,0 -0.048,-0.072 0,-0.072 0.048,-0.072 0.672,0 0.84,-0.18 0.18,-0.18 -0.048,-0.684 l -2.712,-5.8320003 0.228,-0.204 -2.316,5.5680003 q -0.3,0.732 -0.048,1.032 0.252,0.3 1.068,0.3 0.06,0 0.06,0.072 0,0.072 -0.06,0.072 -0.36,0 -0.66,-0.024 -0.3,-0.024 -0.756,-0.024 -0.42,0 -0.684,0.024 -0.252,0.024 -0.612,0.024 -0.048,0 -0.048,-0.072 0,-0.072 0.048,-0.072 0.324,0 0.564,-0.12 0.24,-0.12 0.444,-0.432 0.216,-0.312 0.456,-0.888 l 2.508,-6.0360003 q 0.024,-0.036 0.072,-0.036 0.06,0 0.072,0.036 l 2.784,5.9760003 q 0.276,0.6 0.492,0.936 0.216,0.324 0.432,0.444 0.216,0.12 0.48,0.12 z m 8.279999,-0.876 q 0,0.36 0.096,0.552 0.108,0.18 0.432,0.252 0.324,0.072 0.972,0.072 0.036,0 0.036,0.072 0,0.072 -0.036,0.072 -0.384,0 -0.84,-0.012 -0.444,-0.012 -0.972,-0.012 -0.384,0 -0.744,0.012 -0.36,0.012 -0.648,0.012 -0.024,0 -0.024,-0.072 0,-0.072 0.024,-0.072 0.456,0 0.684,-0.06 0.228,-0.06 0.3,-0.24 0.084,-0.18 0.084,-0.528 V 8.0594987 q 0,-0.348 -0.084,-0.516 -0.072,-0.18 -0.3,-0.24 -0.228,-0.072 -0.684,-0.072 -0.024,0 -0.024,-0.072 0,-0.072 0.024,-0.072 0.288,0 0.636,0.024 0.36,0.012 0.744,0.012 0.312,0 0.756,-0.036 0.444,-0.036 0.924,-0.036 0.66,0 1.2,0.204 0.54,0.204 0.851999,0.636 0.324,0.432 0.324,1.128 0,0.636 -0.24,1.0920003 -0.24,0.456 -0.635999,0.756 -0.384,0.288 -0.852,0.432 -0.468,0.144 -0.924,0.144 -0.156,0 -0.312,-0.012 -0.144,-0.012 -0.276,-0.048 -0.048,-0.012 -0.036,-0.084 0.024,-0.084 0.06,-0.072 0.108,0.024 0.216,0.036 0.12,0.012 0.216,0.012 0.528,0 0.996,-0.216 0.468,-0.216 0.756,-0.66 0.288,-0.4560003 0.288,-1.1400003 0,-0.66 -0.264,-1.116 -0.252,-0.456 -0.684,-0.696 -0.432,-0.24 -0.96,-0.24 -0.432,0 -0.672,0.048 -0.228,0.036 -0.324,0.216 -0.084,0.18 -0.084,0.612 z M 115.08001,7.0874987 q 0.036,0 0.036,0.072 0,0.072 -0.036,0.072 -0.372,0 -0.66,0.156 -0.276,0.156 -0.492,0.672 l -2.64,6.5160003 q -0.012,0.048 -0.132,0.048 -0.108,0 -0.132,-0.048 l -2.964,-6.4920003 q -0.204,-0.468 -0.432,-0.66 -0.228,-0.192 -0.612,-0.192 -0.036,0 -0.036,-0.072 0,-0.072 0.036,-0.072 0.168,0 0.336,0.012 0.18,0.012 0.348,0.024 0.18,0 0.336,0 0.288,0 0.528,0 0.24,-0.012 0.432,-0.024 0.204,-0.012 0.384,-0.012 0.036,0 0.036,0.072 0,0.072 -0.036,0.072 -0.456,0 -0.648,0.156 -0.192,0.144 0.012,0.576 l 2.688,5.9400003 -0.324,0.444 2.568,-6.3600003 q 0.168,-0.42 -0.012,-0.588 -0.18,-0.168 -0.852,-0.168 -0.036,0 -0.036,-0.072 0,-0.072 0.036,-0.072 0.276,0 0.528,0.024 0.264,0.012 0.672,0.012 0.348,0 0.552,-0.012 0.216,-0.024 0.516,-0.024 z M 120.12,14.587499 q -0.048,0 -0.048,-0.072 0,-0.072 0.048,-0.072 0.348,0 0.816,-0.384 0.468,-0.396 0.936,-1.056 l 3.684,-5.3040003 q 0.228,-0.312 0.096,-0.384 -0.12,-0.084 -0.864,-0.084 -0.024,0 -0.024,-0.072 0,-0.072 0.024,-0.072 h 4.608 q 0.108,0 0.108,0.108 l 0.024,1.452 q 0,0.036 -0.072,0.036 -0.06,0 -0.06,-0.036 0,-0.396 -0.156,-0.696 -0.144,-0.3 -0.408,-0.468 -0.264,-0.168 -0.612,-0.168 h -0.696 q -0.432,0 -0.66,0.06 -0.216,0.048 -0.3,0.216 -0.072,0.156 -0.072,0.48 v 5.4960003 q 0,0.336 0.072,0.504 0.084,0.168 0.3,0.228 0.228,0.06 0.66,0.06 h 0.972 q 0.324,0 0.576,-0.192 0.264,-0.192 0.444,-0.528 0.18,-0.348 0.24,-0.804 0,-0.036 0.072,-0.024 0.072,0 0.072,0.036 -0.048,0.312 -0.084,0.756 -0.024,0.432 -0.024,0.804 0,0.18 -0.192,0.18 h -4.812 q -0.024,0 -0.024,-0.072 0,-0.072 0.024,-0.072 0.456,0 0.684,-0.06 0.228,-0.06 0.3,-0.24 0.084,-0.18 0.084,-0.528 V 7.5314987 l 0.264,-0.192 -4.008,5.7720003 q -0.48,0.684 -0.336,1.008 0.144,0.324 0.912,0.324 0.06,0 0.06,0.072 0,0.072 -0.06,0.072 -0.36,0 -0.66,-0.024 -0.3,-0.024 -0.756,-0.024 -0.384,0 -0.612,0.024 -0.228,0.024 -0.54,0.024 z m 3.42,-3.792 0.18,-0.228 h 2.472 l 0.084,0.228 z m 5.388,0.972 q 0,-0.54 -0.228,-0.756 -0.228,-0.216 -0.804,-0.216 h -1.704 v -0.228 h 1.74 q 0.552,0 0.768,-0.18 0.216,-0.192 0.216,-0.6480003 0,-0.024 0.072,-0.024 0.072,0 0.072,0.024 0,0.3480003 -0.012,0.5400003 0,0.192 0,0.408 0,0.264 0.012,0.528 0.012,0.252 0.012,0.552 0,0.024 -0.072,0.024 -0.072,0 -0.072,-0.024 z m 14.304,2.82 q -0.204,0 -0.672,-0.468 -0.468,-0.468 -1.128,-1.332 -0.66,-0.876 -1.476,-2.064 l 0.576,-0.18 q 1.032,1.452 1.752,2.316 0.72,0.852 1.272,1.224 0.552,0.36 1.068,0.36 0.036,0 0.036,0.072 0,0.072 -0.036,0.072 -0.54,0 -0.888,0 -0.336,0 -0.504,0 z M 140.1,7.0514987 q 0.924,0 1.404,0.444 0.492,0.444 0.492,1.152 0,0.636 -0.372,1.152 -0.372,0.5160003 -0.996,0.8160003 -0.612,0.3 -1.356,0.3 -0.108,0 -0.252,-0.012 -0.144,-0.012 -0.264,-0.024 v 2.736 q 0,0.348 0.072,0.528 0.072,0.18 0.3,0.24 0.24,0.06 0.696,0.06 0.036,0 0.036,0.072 0,0.072 -0.036,0.072 -0.288,0 -0.636,-0.012 -0.336,-0.012 -0.756,-0.012 -0.384,0 -0.744,0.012 -0.36,0.012 -0.648,0.012 -0.024,0 -0.024,-0.072 0,-0.072 0.024,-0.072 0.456,0 0.684,-0.06 0.24,-0.06 0.324,-0.24 0.084,-0.18 0.084,-0.528 V 8.0594987 q 0,-0.348 -0.084,-0.516 -0.072,-0.18 -0.3,-0.24 -0.228,-0.072 -0.684,-0.072 -0.036,0 -0.036,-0.072 0,-0.072 0.036,-0.072 0.276,0 0.624,0.024 0.36,0.012 0.744,0.012 0.372,0 0.864,-0.036 0.492,-0.036 0.804,-0.036 z m 1.224,1.92 q 0,-0.648 -0.216,-1.032 -0.204,-0.384 -0.6,-0.552 -0.384,-0.18 -0.936,-0.18 -0.432,0 -0.624,0.156 -0.192,0.156 -0.192,0.72 v 2.5200003 q 0.168,0.012 0.36,0.024 0.204,0.012 0.36,0.012 1.032,0 1.44,-0.432 0.408,-0.4320003 0.408,-1.2360003 z m 10.704,4.6440003 V 8.0594987 q 0,-0.348 -0.084,-0.516 -0.072,-0.18 -0.3,-0.24 -0.228,-0.072 -0.684,-0.072 -0.024,0 -0.024,-0.072 0,-0.072 0.024,-0.072 0.288,0 0.636,0.024 0.36,0.012 0.744,0.012 0.42,0 0.768,-0.012 0.348,-0.024 0.624,-0.024 0.024,0 0.024,0.072 0,0.072 -0.024,0.072 -0.456,0 -0.684,0.072 -0.228,0.072 -0.312,0.252 -0.072,0.18 -0.072,0.528 v 5.5320003 q 0,0.348 0.072,0.528 0.072,0.18 0.3,0.24 0.24,0.06 0.696,0.06 0.024,0 0.024,0.072 0,0.072 -0.024,0.072 -0.288,0 -0.636,-0.012 -0.336,-0.012 -0.756,-0.012 -0.384,0 -0.744,0.012 -0.36,0.012 -0.648,0.012 -0.024,0 -0.024,-0.072 0,-0.072 0.024,-0.072 0.456,0 0.684,-0.06 0.24,-0.06 0.312,-0.24 0.084,-0.18 0.084,-0.528 z m 2.964,-0.768 -1.968,-2.448 0.504,-0.36 1.728,2.172 q 0.564,0.708 0.948,1.152 0.396,0.432 0.66,0.66 0.264,0.228 0.468,0.324 0.204,0.084 0.384,0.096 0.192,0 0.42,0 0.036,0 0.036,0.072 0,0.072 -0.036,0.072 -0.54,0 -0.864,0 -0.324,0 -0.48,0 -0.084,0 -0.144,0 -0.048,0.012 -0.108,0.012 -0.168,0 -0.264,-0.06 -0.096,-0.06 -0.228,-0.24 -0.12,-0.18 -0.36,-0.528 -0.24,-0.348 -0.696,-0.924 z m -2.772,-1.788 3.084,-3.0720003 q 0.456,-0.456 0.396,-0.6 -0.048,-0.156 -0.684,-0.156 -0.024,0 -0.024,-0.072 0,-0.072 0.024,-0.072 0.288,0 0.576,0.024 0.3,0.012 0.78,0.012 0.444,0 0.696,-0.012 0.264,-0.024 0.504,-0.024 0.036,0 0.036,0.072 0,0.072 -0.036,0.072 -0.408,0 -0.948,0.168 -0.54,0.168 -1.044,0.66 l -3.072,2.9880003 z"
     id="text1"
     style="font-weight:300;font-size:12px;font-family:'Cormorant Garamond', serif;letter-spacing:6;text-anchor:middle;fill:#1a1a1a"
     aria-label="KNAPVÆRK" />
  <!-- Minimal dot separator -->
  <!-- Subtitle - LARS BJERRE - Very subtle -->
  <path
     d="m 70.462869,18.866163 v 1.603 q 0,0.098 0.021,0.147 0.0245,0.049 0.0875,0.0665 0.0665,0.0175 0.1925,0.0175 h 0.448 q 0.1855,0 0.2835,-0.1225 0.098,-0.1225 0.126,-0.322 0,-0.0105 0.0175,-0.007 0.021,0 0.021,0.0105 -0.0105,0.091 -0.021,0.2205 -0.0105,0.126 -0.0105,0.2345 0,0.0525 -0.0525,0.0525 h -1.61 q -0.007,0 -0.007,-0.021 0,-0.021 0.007,-0.021 0.133,0 0.1995,-0.0175 0.0665,-0.0175 0.0875,-0.07 0.0245,-0.0525 0.0245,-0.154 v -1.6205 q 0,-0.1015 -0.0245,-0.1505 -0.021,-0.0525 -0.0875,-0.07 -0.0665,-0.021 -0.1995,-0.021 -0.007,0 -0.007,-0.021 0,-0.021 0.007,-0.021 0.084,0 0.1855,0.007 0.105,0.0035 0.217,0.0035 0.119,0 0.2205,-0.0035 0.105,-0.007 0.1855,-0.007 0.007,0 0.007,0.021 0,0.021 -0.007,0.021 -0.133,0 -0.1995,0.021 -0.0665,0.0175 -0.091,0.07 -0.021,0.0525 -0.021,0.154 z m 6.932628,0.896 0.0315,-0.063 h 0.9065 l 0.0245,0.063 z m 1.729,0.9625 q 0.014,0 0.014,0.021 0,0.021 -0.014,0.021 -0.098,0 -0.203,-0.007 -0.1015,-0.007 -0.196,-0.007 -0.1085,0 -0.189,0.007 -0.077,0.007 -0.1715,0.007 -0.014,0 -0.014,-0.021 0,-0.021 0.014,-0.021 0.196,0 0.245,-0.0525 0.0525,-0.0525 -0.014,-0.1995 l -0.791,-1.701 0.0665,-0.0595 -0.6755,1.624 q -0.0875,0.2135 -0.014,0.301 0.0735,0.0875 0.3115,0.0875 0.0175,0 0.0175,0.021 0,0.021 -0.0175,0.021 -0.105,0 -0.1925,-0.007 -0.0875,-0.007 -0.2205,-0.007 -0.1225,0 -0.1995,0.007 -0.0735,0.007 -0.1785,0.007 -0.014,0 -0.014,-0.021 0,-0.021 0.014,-0.021 0.0945,0 0.1645,-0.035 0.07,-0.035 0.1295,-0.126 0.063,-0.091 0.133,-0.259 l 0.7315,-1.7605 q 0.007,-0.0105 0.021,-0.0105 0.0175,0 0.021,0.0105 l 0.812,1.743 q 0.0805,0.175 0.1435,0.273 0.063,0.0945 0.126,0.1295 0.063,0.035 0.14,0.035 z m 6.974625,0.042 q -0.0595,0 -0.196,-0.1365 -0.1365,-0.1365 -0.329,-0.3885 -0.1925,-0.2555 -0.4305,-0.602 l 0.168,-0.0525 q 0.301,0.4235 0.511,0.6755 0.21,0.2485 0.371,0.357 0.161,0.105 0.3115,0.105 0.0105,0 0.0105,0.021 0,0.021 -0.0105,0.021 -0.1575,0 -0.259,0 -0.098,0 -0.147,0 z m -0.9135,-2.198 q 0.2695,0 0.4095,0.1295 0.1435,0.1295 0.1435,0.336 0,0.1855 -0.1085,0.336 -0.1085,0.1505 -0.2905,0.238 -0.1785,0.0875 -0.3955,0.0875 -0.0315,0 -0.0735,-0.0035 -0.042,-0.0035 -0.077,-0.007 v 0.798 q 0,0.1015 0.021,0.154 0.021,0.0525 0.0875,0.07 0.07,0.0175 0.203,0.0175 0.0105,0 0.0105,0.021 0,0.021 -0.0105,0.021 -0.084,0 -0.1855,-0.0035 -0.098,-0.0035 -0.2205,-0.0035 -0.112,0 -0.217,0.0035 -0.105,0.0035 -0.189,0.0035 -0.007,0 -0.007,-0.021 0,-0.021 0.007,-0.021 0.133,0 0.1995,-0.0175 0.07,-0.0175 0.0945,-0.07 0.0245,-0.0525 0.0245,-0.154 v -1.6205 q 0,-0.1015 -0.0245,-0.1505 -0.021,-0.0525 -0.0875,-0.07 -0.0665,-0.021 -0.1995,-0.021 -0.0105,0 -0.0105,-0.021 0,-0.021 0.0105,-0.021 0.0805,0 0.182,0.007 0.105,0.0035 0.217,0.0035 0.1085,0 0.252,-0.0105 0.1435,-0.0105 0.2345,-0.0105 z m 0.357,0.56 q 0,-0.189 -0.063,-0.301 -0.0595,-0.112 -0.175,-0.161 -0.112,-0.0525 -0.273,-0.0525 -0.126,0 -0.182,0.0455 -0.056,0.0455 -0.056,0.21 v 0.735 q 0.049,0.0035 0.105,0.007 0.0595,0.0035 0.105,0.0035 0.301,0 0.42,-0.126 0.119,-0.126 0.119,-0.3605 z m 6.351626,-0.126 q 0,0.147 0.07,0.252 0.0735,0.1015 0.1855,0.1785 0.1155,0.077 0.2415,0.1505 0.1295,0.0735 0.2485,0.1575 0.119,0.0805 0.196,0.196 0.0805,0.112 0.0805,0.28 0,0.161 -0.0805,0.2975 -0.077,0.133 -0.2345,0.2135 -0.1575,0.0805 -0.3955,0.0805 -0.077,0 -0.154,-0.0105 -0.0735,-0.0105 -0.154,-0.035 -0.077,-0.028 -0.168,-0.0735 -0.0175,-0.0105 -0.0245,-0.0245 -0.0035,-0.0175 -0.007,-0.042 l -0.0525,-0.455 q -0.0035,-0.0175 0.014,-0.0175 0.021,-0.0035 0.0245,0.0105 0.014,0.105 0.056,0.21 0.042,0.105 0.112,0.1925 0.0735,0.0875 0.1785,0.1435 0.1085,0.0525 0.252,0.0525 0.1085,0 0.21,-0.0385 0.1015,-0.042 0.1645,-0.133 0.0665,-0.091 0.0665,-0.2485 0,-0.1715 -0.077,-0.2835 -0.0735,-0.1155 -0.189,-0.196 -0.1155,-0.084 -0.245,-0.1575 -0.1225,-0.0735 -0.238,-0.154 -0.1155,-0.0805 -0.189,-0.189 -0.07,-0.112 -0.07,-0.2765 0,-0.182 0.091,-0.301 0.091,-0.1225 0.2345,-0.182 0.147,-0.0595 0.3045,-0.0595 0.091,0 0.189,0.021 0.1015,0.0175 0.21,0.063 0.028,0.0105 0.0385,0.028 0.014,0.014 0.014,0.0315 l 0.0315,0.371 q 0,0.014 -0.021,0.014 -0.0175,0 -0.021,-0.014 -0.007,-0.077 -0.0385,-0.1575 -0.028,-0.084 -0.0875,-0.154 -0.056,-0.07 -0.147,-0.112 -0.0875,-0.0455 -0.2135,-0.0455 -0.1505,0 -0.2415,0.063 -0.0875,0.063 -0.126,0.1575 -0.0385,0.0945 -0.0385,0.196 z m 13.077752,0.56 0.0385,-0.0315 q 0.1995,0 0.35,0.077 0.1505,0.077 0.231,0.21 0.084,0.133 0.084,0.301 0,0.189 -0.0875,0.3395 -0.0875,0.1505 -0.2415,0.238 -0.1505,0.084 -0.3395,0.084 -0.1155,0 -0.2555,-0.0105 -0.14,-0.0105 -0.2625,-0.0105 -0.112,0 -0.217,0.0035 -0.105,0.0035 -0.189,0.0035 -0.007,0 -0.007,-0.021 0,-0.021 0.007,-0.021 0.133,0 0.1995,-0.0175 0.07,-0.0175 0.0945,-0.07 0.0245,-0.0525 0.0245,-0.154 v -1.6205 q 0,-0.1015 -0.0245,-0.1505 -0.021,-0.0525 -0.0875,-0.07 -0.0665,-0.021 -0.1995,-0.021 -0.0105,0 -0.0105,-0.021 0,-0.021 0.0105,-0.021 0.0805,0 0.182,0.007 0.105,0.0035 0.217,0.0035 0.091,0 0.21,-0.0105 0.1225,-0.0105 0.1995,-0.0105 0.2065,0 0.329,0.0665 0.126,0.063 0.182,0.168 0.056,0.105 0.056,0.231 0,0.1995 -0.1435,0.336 -0.14,0.1365 -0.35,0.1925 z m -0.154,-0.9485 q -0.084,0 -0.1365,0.014 -0.0525,0.0105 -0.077,0.063 -0.021,0.0525 -0.021,0.1785 v 0.686 l -0.105,-0.028 q 0.112,0.007 0.1855,0.0105 0.0735,0 0.084,0 0.2905,0 0.4095,-0.1365 0.119,-0.14 0.119,-0.343 0,-0.119 -0.0455,-0.2205 -0.042,-0.1015 -0.1435,-0.161 -0.098,-0.063 -0.2695,-0.063 z m 0.14,2.1105 q 0.266,0 0.3885,-0.1365 0.126,-0.14 0.126,-0.3815 0,-0.2625 -0.161,-0.4305 -0.161,-0.168 -0.441,-0.1715 -0.098,-0.0035 -0.1925,0 -0.0945,0.0035 -0.189,0.0175 l 0.0945,-0.0385 v 0.8995 q 0,0.0875 0.028,0.1435 0.028,0.0525 0.1085,0.077 0.0805,0.021 0.238,0.021 z m 6.85562,-2.1455 q 0.007,0 0.007,0.021 0,0.021 -0.007,0.021 -0.1155,0 -0.175,0.021 -0.056,0.021 -0.077,0.0735 -0.0175,0.0525 -0.0175,0.154 v 2.016 q 0,0.322 -0.1505,0.5285 -0.147,0.2065 -0.448,0.2065 -0.119,0 -0.182,-0.0385 -0.063,-0.0385 -0.063,-0.0945 0,-0.049 0.028,-0.077 0.028,-0.0245 0.0735,-0.0245 0.0595,0 0.0875,0.0245 0.0315,0.0245 0.0525,0.056 0.021,0.035 0.049,0.0595 0.0315,0.028 0.0875,0.028 0.133,0 0.203,-0.1505 0.0735,-0.147 0.0735,-0.4865 v -2.0545 q 0,-0.1015 -0.028,-0.1505 -0.0245,-0.0525 -0.1015,-0.07 -0.0735,-0.021 -0.2275,-0.021 -0.007,0 -0.007,-0.021 0,-0.021 0.007,-0.021 0.1015,0 0.2135,0.007 0.112,0.0035 0.2345,0.0035 0.112,0 0.203,-0.0035 0.091,-0.007 0.1645,-0.007 z m 6.75063,2.1875 h -1.4455 q -0.007,0 -0.007,-0.021 0,-0.021 0.007,-0.021 0.133,0 0.1995,-0.0175 0.0665,-0.0175 0.0875,-0.07 0.0245,-0.0525 0.0245,-0.154 v -1.6205 q 0,-0.1015 -0.0245,-0.1505 -0.021,-0.0525 -0.0875,-0.07 -0.0665,-0.021 -0.1995,-0.021 -0.007,0 -0.007,-0.021 0,-0.021 0.007,-0.021 h 1.386 q 0.0315,0 0.0315,0.0315 l 0.007,0.4235 q 0,0.0105 -0.021,0.0105 -0.0175,0 -0.0175,-0.0105 0,-0.182 -0.0945,-0.2835 -0.0945,-0.105 -0.2485,-0.105 h -0.2415 q -0.1295,0 -0.196,0.0175 -0.063,0.0175 -0.0875,0.07 -0.021,0.049 -0.021,0.1505 v 1.5855 q 0,0.098 0.021,0.147 0.0245,0.049 0.0875,0.0665 0.0665,0.0175 0.196,0.0175 h 0.322 q 0.14,0 0.2415,-0.1225 0.1015,-0.1225 0.126,-0.322 0,-0.0105 0.021,-0.007 0.021,0 0.021,0.0105 -0.014,0.091 -0.0245,0.2205 -0.007,0.126 -0.007,0.2345 0,0.0525 -0.056,0.0525 z m -0.196,-0.8225 q 0,-0.1575 -0.0665,-0.2205 -0.0665,-0.063 -0.2345,-0.063 h -0.539 v -0.0665 h 0.5495 q 0.161,0 0.224,-0.0525 0.063,-0.056 0.063,-0.189 0,-0.007 0.021,-0.007 0.021,0 0.021,0.007 0,0.1015 -0.004,0.1575 0,0.056 0,0.119 0,0.077 0.004,0.154 0.004,0.0735 0.004,0.161 0,0.007 -0.021,0.007 -0.021,0 -0.021,-0.007 z m 7.15663,0.8225 q -0.042,0 -0.14,-0.1435 -0.0945,-0.1435 -0.2275,-0.399 -0.1295,-0.2555 -0.28,-0.588 l 0.168,-0.056 q 0.196,0.413 0.3395,0.665 0.1435,0.252 0.2695,0.3675 0.1295,0.112 0.2765,0.112 0.0105,0 0.0105,0.021 0,0.021 -0.0105,0.021 -0.1575,0 -0.259,0 -0.098,0 -0.147,0 z m -0.6265,-2.198 q 0.2695,0 0.4095,0.1295 0.1435,0.1295 0.1435,0.336 0,0.1855 -0.1085,0.336 -0.1085,0.1505 -0.294,0.238 -0.1855,0.0875 -0.413,0.0875 -0.0315,0 -0.0735,-0.0035 -0.042,-0.0035 -0.077,-0.007 v 0.798 q 0,0.1015 0.021,0.154 0.021,0.0525 0.0875,0.07 0.07,0.0175 0.203,0.0175 0.0105,0 0.0105,0.021 0,0.021 -0.0105,0.021 -0.084,0 -0.1855,-0.0035 -0.098,-0.0035 -0.2205,-0.0035 -0.112,0 -0.217,0.0035 -0.105,0.0035 -0.189,0.0035 -0.007,0 -0.007,-0.021 0,-0.021 0.007,-0.021 0.133,0 0.1995,-0.0175 0.07,-0.0175 0.0945,-0.07 0.0245,-0.0525 0.0245,-0.154 v -1.6205 q 0,-0.1015 -0.0245,-0.1505 -0.021,-0.0525 -0.0875,-0.07 -0.0665,-0.021 -0.1995,-0.021 -0.0105,0 -0.0105,-0.021 0,-0.021 0.0105,-0.021 0.0805,0 0.182,0.007 0.105,0.0035 0.217,0.0035 0.0735,0 0.168,-0.0035 0.0945,-0.007 0.1855,-0.0105 0.0945,-0.007 0.154,-0.007 z m 0.357,0.56 q 0,-0.189 -0.063,-0.301 -0.063,-0.112 -0.182,-0.161 -0.1155,-0.0525 -0.287,-0.0525 -0.126,0 -0.182,0.0455 -0.056,0.0455 -0.056,0.21 v 0.735 q 0.049,0.0035 0.105,0.007 0.0595,0.0035 0.105,0.0035 0.315,0 0.4375,-0.126 0.1225,-0.126 0.1225,-0.3605 z m 7.66412,1.638 q -0.0595,0 -0.196,-0.1365 -0.1365,-0.1365 -0.329,-0.3885 -0.1925,-0.2555 -0.4305,-0.602 l 0.168,-0.0525 q 0.301,0.4235 0.511,0.6755 0.21,0.2485 0.371,0.357 0.161,0.105 0.3115,0.105 0.0105,0 0.0105,0.021 0,0.021 -0.0105,0.021 -0.1575,0 -0.259,0 -0.098,0 -0.147,0 z m -0.9135,-2.198 q 0.2695,0 0.4095,0.1295 0.1435,0.1295 0.1435,0.336 0,0.1855 -0.1085,0.336 -0.1085,0.1505 -0.2905,0.238 -0.1785,0.0875 -0.3955,0.0875 -0.0315,0 -0.0735,-0.0035 -0.042,-0.0035 -0.077,-0.007 v 0.798 q 0,0.1015 0.021,0.154 0.021,0.0525 0.0875,0.07 0.07,0.0175 0.203,0.0175 0.0105,0 0.0105,0.021 0,0.021 -0.0105,0.021 -0.084,0 -0.1855,-0.0035 -0.098,-0.0035 -0.2205,-0.0035 -0.112,0 -0.217,0.0035 -0.105,0.0035 -0.189,0.0035 -0.007,0 -0.007,-0.021 0,-0.021 0.007,-0.021 0.133,0 0.1995,-0.0175 0.07,-0.0175 0.0945,-0.07 0.0245,-0.0525 0.0245,-0.154 v -1.6205 q 0,-0.1015 -0.0245,-0.1505 -0.021,-0.0525 -0.0875,-0.07 -0.0665,-0.021 -0.1995,-0.021 -0.0105,0 -0.0105,-0.021 0,-0.021 0.0105,-0.021 0.0805,0 0.182,0.007 0.105,0.0035 0.217,0.0035 0.1085,0 0.252,-0.0105 0.1435,-0.0105 0.2345,-0.0105 z m 0.357,0.56 q 0,-0.189 -0.063,-0.301 -0.0595,-0.112 -0.175,-0.161 -0.112,-0.0525 -0.273,-0.0525 -0.126,0 -0.182,0.0455 -0.056,0.0455 -0.056,0.21 v 0.735 q 0.049,0.0035 0.105,0.007 0.0595,0.0035 0.105,0.0035 0.301,0 0.42,-0.126 0.119,-0.126 0.119,-0.3605 z m 7.53113,1.638 h -1.4455 q -0.007,0 -0.007,-0.021 0,-0.021 0.007,-0.021 0.133,0 0.1995,-0.0175 0.0665,-0.0175 0.0875,-0.07 0.0245,-0.0525 0.0245,-0.154 v -1.6205 q 0,-0.1015 -0.0245,-0.1505 -0.021,-0.0525 -0.0875,-0.07 -0.0665,-0.021 -0.1995,-0.021 -0.007,0 -0.007,-0.021 0,-0.021 0.007,-0.021 h 1.386 q 0.0315,0 0.0315,0.0315 l 0.007,0.4235 q 0,0.0105 -0.021,0.0105 -0.0175,0 -0.0175,-0.0105 0,-0.182 -0.0945,-0.2835 -0.0945,-0.105 -0.2485,-0.105 h -0.2415 q -0.1295,0 -0.196,0.0175 -0.063,0.0175 -0.0875,0.07 -0.021,0.049 -0.021,0.1505 v 1.5855 q 0,0.098 0.021,0.147 0.0245,0.049 0.0875,0.0665 0.0665,0.0175 0.196,0.0175 h 0.322 q 0.14,0 0.2415,-0.1225 0.1015,-0.1225 0.126,-0.322 0,-0.0105 0.021,-0.007 0.021,0 0.021,0.0105 -0.014,0.091 -0.0245,0.2205 -0.007,0.126 -0.007,0.2345 0,0.0525 -0.056,0.0525 z m -0.196,-0.8225 q 0,-0.1575 -0.0665,-0.2205 -0.0665,-0.063 -0.2345,-0.063 h -0.539 v -0.0665 h 0.5495 q 0.161,0 0.224,-0.0525 0.063,-0.056 0.063,-0.189 0,-0.007 0.021,-0.007 0.021,0 0.021,0.007 0,0.1015 -0.004,0.1575 0,0.056 0,0.119 0,0.077 0.004,0.154 0.004,0.0735 0.004,0.161 0,0.007 -0.021,0.007 -0.021,0 -0.021,-0.007 z"
     id="text2"
     style="font-weight:300;font-size:3.5px;font-family:'Cormorant Garamond', serif;letter-spacing:5.00063px;text-anchor:middle;fill:#999999"
     aria-label="LARS BJERRE" />
</svg>
