<?xml version="1.0" encoding="UTF-8" standalone="no"?>
<svg
   width="32"
   height="32"
   viewBox="0 0 32 32"
   version="1.1"
   id="svg1"
   xmlns="http://www.w3.org/2000/svg"
   xmlns:svg="http://www.w3.org/2000/svg">
  <defs
     id="defs1">
    <style
       id="style1">
      @import url('https://fonts.googleapis.com/css2?family=Cormorant+Garamond:wght@300&amp;display=swap');
    </style>
  </defs>
  <path
     id="rect1"
     style="fill:#1a1a1a"
     d="M 0,0 H 32 V 32 H 0 Z" />
  <path
     d="m 11.512004,21.664001 v -10.186 q 0,-0.638 -0.132,-0.946 -0.132,-0.33 -0.55,-0.44 -0.396,-0.1320004 -1.1879998,-0.1320004 -0.044,0 -0.044,-0.132 0,-0.132 0.044,-0.132 0.5279998,0 1.1879998,0.044 0.66,0.022 1.386,0.022 0.792,0 1.43,-0.022 0.66,-0.044 1.166,-0.044 0.066,0 0.066,0.132 0,0.132 -0.066,0.132 -0.792,0 -1.188,0.1320004 -0.396,0.132 -0.55,0.462 -0.132,0.33 -0.132,0.968 v 10.142 q 0,0.638 0.132,0.968 0.132,0.33 0.528,0.44 0.418,0.11 1.21,0.11 0.066,0 0.066,0.132 0,0.132 -0.066,0.132 -0.528,0 -1.166,-0.022 -0.638,-0.022 -1.43,-0.022 -0.726,0 -1.408,0.022 -0.66,0.022 -1.1879998,0.022 -0.044,0 -0.044,-0.132 0,-0.132 0.044,-0.132 0.7919998,0 1.2099998,-0.11 0.418,-0.11 0.55,-0.44 0.132,-0.33 0.132,-0.968 z m 5.522,-1.408 -3.498,-4.4 1.1,-0.88 3.212,4.092 q 0.99,1.298 1.672,2.09 0.704,0.792 1.166,1.232 0.462,0.418 0.814,0.594 0.374,0.154 0.704,0.176 0.33,0.022 0.748,0.022 0.066,0 0.066,0.132 0,0.132 -0.066,0.132 -0.99,0 -1.584,0 -0.594,0 -0.88,0 -0.198,0 -0.33,0 -0.11,0.022 -0.242,0.022 -0.308,0 -0.506,-0.11 -0.176,-0.11 -0.418,-0.44 -0.242,-0.33 -0.704,-0.968 -0.44,-0.638 -1.254,-1.694 z m -5.06,-3.124 5.676,-5.654 q 0.814,-0.836 0.682,-1.166 -0.11,-0.3520004 -1.254,-0.3520004 -0.044,0 -0.044,-0.132 0,-0.132 0.044,-0.132 0.55,0 1.1,0.044 0.55,0.022 1.452,0.022 0.858,0 1.364,-0.022 0.506,-0.044 0.968,-0.044 0.066,0 0.066,0.132 0,0.132 -0.066,0.132 -0.792,0 -1.826,0.3740004 -1.034,0.352 -1.98,1.276 l -5.632,5.522 z"
     id="text1"
     style="font-size:22px;font-family:'Cormorant Garamond', serif;dominant-baseline:middle;text-anchor:middle;fill:#ffffff"
     aria-label="K" />
</svg>
